<mxfile host="app.diagrams.net" modified="2022-09-14T03:50:26.183Z" agent="5.0 (Macintosh; Intel Mac OS X 10_15_7) AppleWebKit/537.36 (KHTML, like Gecko) Chrome/104.0.0.0 Safari/537.36" etag="CtBmylLwPoah1nitdo7o" version="20.2.3" type="github" pages="2">
  <diagram id="kgpKYQtTHZ0yAKxKKP6v" name="Page-1">
    <mxGraphModel dx="1426" dy="769" grid="1" gridSize="10" guides="1" tooltips="1" connect="1" arrows="1" fold="1" page="1" pageScale="1" pageWidth="850" pageHeight="1100" math="0" shadow="0">
      <root>
        <mxCell id="0" />
        <mxCell id="1" parent="0" />
        <mxCell id="3nuBFxr9cyL0pnOWT2aG-1" value="bang-api" style="shape=umlLifeline;perimeter=lifelinePerimeter;container=1;collapsible=0;recursiveResize=0;rounded=0;shadow=0;strokeWidth=1;" parent="1" vertex="1">
          <mxGeometry x="120" y="80" width="100" height="1000" as="geometry" />
        </mxCell>
        <mxCell id="3nuBFxr9cyL0pnOWT2aG-2" value="" style="points=[];perimeter=orthogonalPerimeter;rounded=0;shadow=0;strokeWidth=1;" parent="3nuBFxr9cyL0pnOWT2aG-1" vertex="1">
          <mxGeometry x="45" y="80" width="10" height="160" as="geometry" />
        </mxCell>
        <mxCell id="7i__L5xyIWYvFo6Nl9Qe-13" value="" style="points=[];perimeter=orthogonalPerimeter;rounded=0;shadow=0;strokeWidth=1;" parent="3nuBFxr9cyL0pnOWT2aG-1" vertex="1">
          <mxGeometry x="45" y="320" width="10" height="160" as="geometry" />
        </mxCell>
        <mxCell id="7i__L5xyIWYvFo6Nl9Qe-36" value="" style="points=[];perimeter=orthogonalPerimeter;rounded=0;shadow=0;strokeWidth=1;" parent="3nuBFxr9cyL0pnOWT2aG-1" vertex="1">
          <mxGeometry x="45" y="600" width="10" height="160" as="geometry" />
        </mxCell>
        <mxCell id="7i__L5xyIWYvFo6Nl9Qe-42" value="" style="endArrow=classic;html=1;rounded=0;entryX=-0.041;entryY=0.253;entryDx=0;entryDy=0;entryPerimeter=0;" parent="3nuBFxr9cyL0pnOWT2aG-1" target="7i__L5xyIWYvFo6Nl9Qe-36" edge="1">
          <mxGeometry width="50" height="50" relative="1" as="geometry">
            <mxPoint x="-70.00000000000023" y="640" as="sourcePoint" />
            <mxPoint x="32.99999999999977" y="640.3600000000001" as="targetPoint" />
          </mxGeometry>
        </mxCell>
        <mxCell id="7i__L5xyIWYvFo6Nl9Qe-43" value="取消" style="edgeLabel;html=1;align=center;verticalAlign=middle;resizable=0;points=[];" parent="7i__L5xyIWYvFo6Nl9Qe-42" vertex="1" connectable="0">
          <mxGeometry x="-0.2793" y="3" relative="1" as="geometry">
            <mxPoint as="offset" />
          </mxGeometry>
        </mxCell>
        <mxCell id="7i__L5xyIWYvFo6Nl9Qe-49" value="" style="points=[];perimeter=orthogonalPerimeter;rounded=0;shadow=0;strokeWidth=1;" parent="3nuBFxr9cyL0pnOWT2aG-1" vertex="1">
          <mxGeometry x="45" y="820" width="10" height="160" as="geometry" />
        </mxCell>
        <mxCell id="3nuBFxr9cyL0pnOWT2aG-5" value="platform" style="shape=umlLifeline;perimeter=lifelinePerimeter;container=1;collapsible=0;recursiveResize=0;rounded=0;shadow=0;strokeWidth=1;" parent="1" vertex="1">
          <mxGeometry x="370" y="80" width="100" height="1000" as="geometry" />
        </mxCell>
        <mxCell id="3nuBFxr9cyL0pnOWT2aG-6" value="" style="points=[];perimeter=orthogonalPerimeter;rounded=0;shadow=0;strokeWidth=1;" parent="3nuBFxr9cyL0pnOWT2aG-5" vertex="1">
          <mxGeometry x="45" y="80" width="10" height="160" as="geometry" />
        </mxCell>
        <mxCell id="3nuBFxr9cyL0pnOWT2aG-4" value="" style="points=[];perimeter=orthogonalPerimeter;rounded=0;shadow=0;strokeWidth=1;" parent="3nuBFxr9cyL0pnOWT2aG-5" vertex="1">
          <mxGeometry x="55" y="100" width="10" height="40" as="geometry" />
        </mxCell>
        <mxCell id="7i__L5xyIWYvFo6Nl9Qe-12" value="" style="points=[];perimeter=orthogonalPerimeter;rounded=0;shadow=0;strokeWidth=1;" parent="3nuBFxr9cyL0pnOWT2aG-5" vertex="1">
          <mxGeometry x="45" y="320" width="10" height="160" as="geometry" />
        </mxCell>
        <mxCell id="7i__L5xyIWYvFo6Nl9Qe-37" value="" style="points=[];perimeter=orthogonalPerimeter;rounded=0;shadow=0;strokeWidth=1;" parent="3nuBFxr9cyL0pnOWT2aG-5" vertex="1">
          <mxGeometry x="45" y="600" width="10" height="160" as="geometry" />
        </mxCell>
        <mxCell id="3nuBFxr9cyL0pnOWT2aG-7" value="return" style="verticalAlign=bottom;endArrow=open;dashed=1;endSize=8;shadow=0;strokeWidth=1;entryX=-0.3;entryY=0.65;entryDx=0;entryDy=0;entryPerimeter=0;" parent="1" source="3nuBFxr9cyL0pnOWT2aG-2" target="3nuBFxr9cyL0pnOWT2aG-6" edge="1">
          <mxGeometry relative="1" as="geometry">
            <mxPoint x="275" y="236" as="targetPoint" />
            <mxPoint x="280" y="440" as="sourcePoint" />
          </mxGeometry>
        </mxCell>
        <mxCell id="7i__L5xyIWYvFo6Nl9Qe-1" value="plugin" style="shape=umlLifeline;perimeter=lifelinePerimeter;container=1;collapsible=0;recursiveResize=0;rounded=0;shadow=0;strokeWidth=1;" parent="1" vertex="1">
          <mxGeometry x="610" y="80" width="100" height="1000" as="geometry" />
        </mxCell>
        <mxCell id="7i__L5xyIWYvFo6Nl9Qe-2" value="" style="points=[];perimeter=orthogonalPerimeter;rounded=0;shadow=0;strokeWidth=1;" parent="7i__L5xyIWYvFo6Nl9Qe-1" vertex="1">
          <mxGeometry x="45" y="80" width="10" height="160" as="geometry" />
        </mxCell>
        <mxCell id="7i__L5xyIWYvFo6Nl9Qe-11" value="" style="points=[];perimeter=orthogonalPerimeter;rounded=0;shadow=0;strokeWidth=1;" parent="7i__L5xyIWYvFo6Nl9Qe-1" vertex="1">
          <mxGeometry x="45" y="320" width="10" height="160" as="geometry" />
        </mxCell>
        <mxCell id="7i__L5xyIWYvFo6Nl9Qe-38" value="" style="points=[];perimeter=orthogonalPerimeter;rounded=0;shadow=0;strokeWidth=1;" parent="7i__L5xyIWYvFo6Nl9Qe-1" vertex="1">
          <mxGeometry x="45" y="600" width="10" height="160" as="geometry" />
        </mxCell>
        <mxCell id="7i__L5xyIWYvFo6Nl9Qe-6" value="" style="endArrow=classic;html=1;rounded=0;exitX=-0.2;exitY=0.081;exitDx=0;exitDy=0;exitPerimeter=0;entryX=0.9;entryY=0.075;entryDx=0;entryDy=0;entryPerimeter=0;" parent="1" source="7i__L5xyIWYvFo6Nl9Qe-2" target="3nuBFxr9cyL0pnOWT2aG-6" edge="1">
          <mxGeometry width="50" height="50" relative="1" as="geometry">
            <mxPoint x="400" y="420" as="sourcePoint" />
            <mxPoint x="400" y="173" as="targetPoint" />
          </mxGeometry>
        </mxCell>
        <mxCell id="7i__L5xyIWYvFo6Nl9Qe-7" value="" style="endArrow=classic;html=1;rounded=0;entryX=0.9;entryY=0.495;entryDx=0;entryDy=0;entryPerimeter=0;exitX=-0.1;exitY=0.494;exitDx=0;exitDy=0;exitPerimeter=0;" parent="1" source="3nuBFxr9cyL0pnOWT2aG-6" target="3nuBFxr9cyL0pnOWT2aG-2" edge="1">
          <mxGeometry width="50" height="50" relative="1" as="geometry">
            <mxPoint x="410" y="239" as="sourcePoint" />
            <mxPoint x="200" y="240" as="targetPoint" />
          </mxGeometry>
        </mxCell>
        <mxCell id="7i__L5xyIWYvFo6Nl9Qe-8" value="return" style="verticalAlign=bottom;endArrow=open;dashed=1;endSize=8;shadow=0;strokeWidth=1;entryX=0;entryY=0.725;entryDx=0;entryDy=0;entryPerimeter=0;exitX=1.4;exitY=0.725;exitDx=0;exitDy=0;exitPerimeter=0;" parent="1" source="3nuBFxr9cyL0pnOWT2aG-6" target="7i__L5xyIWYvFo6Nl9Qe-2" edge="1">
          <mxGeometry relative="1" as="geometry">
            <mxPoint x="657" y="450" as="targetPoint" />
            <mxPoint x="410" y="450" as="sourcePoint" />
          </mxGeometry>
        </mxCell>
        <mxCell id="7i__L5xyIWYvFo6Nl9Qe-29" value="创建Process&lt;br&gt;完成Process" style="shape=singleArrow;direction=west;whiteSpace=wrap;html=1;" parent="1" vertex="1">
          <mxGeometry x="720" y="170" width="100" height="130" as="geometry" />
        </mxCell>
        <mxCell id="7i__L5xyIWYvFo6Nl9Qe-30" value="dispatch" style="endArrow=classic;html=1;rounded=0;exitX=0.967;exitY=0.126;exitDx=0;exitDy=0;exitPerimeter=0;entryX=0;entryY=0.302;entryDx=0;entryDy=0;entryPerimeter=0;" parent="1" target="7i__L5xyIWYvFo6Nl9Qe-12" edge="1">
          <mxGeometry width="50" height="50" relative="1" as="geometry">
            <mxPoint x="174.67000000000007" y="449.1600000000001" as="sourcePoint" />
            <mxPoint x="411.3299999999999" y="449.1600000000001" as="targetPoint" />
          </mxGeometry>
        </mxCell>
        <mxCell id="7i__L5xyIWYvFo6Nl9Qe-31" value="return" style="verticalAlign=bottom;endArrow=open;dashed=1;endSize=8;shadow=0;strokeWidth=1;entryX=0.972;entryY=0.746;entryDx=0;entryDy=0;entryPerimeter=0;exitX=-0.237;exitY=0.747;exitDx=0;exitDy=0;exitPerimeter=0;" parent="1" source="7i__L5xyIWYvFo6Nl9Qe-12" target="7i__L5xyIWYvFo6Nl9Qe-13" edge="1">
          <mxGeometry relative="1" as="geometry">
            <mxPoint x="200" y="520" as="targetPoint" />
            <mxPoint x="350" y="520" as="sourcePoint" />
          </mxGeometry>
        </mxCell>
        <mxCell id="7i__L5xyIWYvFo6Nl9Qe-32" value="Actor" style="shape=umlActor;verticalLabelPosition=bottom;verticalAlign=top;html=1;outlineConnect=0;" parent="1" vertex="1">
          <mxGeometry x="20" y="380" width="30" height="60" as="geometry" />
        </mxCell>
        <mxCell id="7i__L5xyIWYvFo6Nl9Qe-33" value="" style="endArrow=classic;html=1;rounded=0;entryX=-0.2;entryY=0.096;entryDx=0;entryDy=0;entryPerimeter=0;" parent="1" target="7i__L5xyIWYvFo6Nl9Qe-13" edge="1">
          <mxGeometry width="50" height="50" relative="1" as="geometry">
            <mxPoint x="60" y="415" as="sourcePoint" />
            <mxPoint x="120" y="400" as="targetPoint" />
          </mxGeometry>
        </mxCell>
        <mxCell id="7i__L5xyIWYvFo6Nl9Qe-35" value="获取标题&lt;br&gt;查看结果" style="shape=singleArrow;whiteSpace=wrap;html=1;" parent="1" vertex="1">
          <mxGeometry x="30" y="470" width="100" height="110" as="geometry" />
        </mxCell>
        <mxCell id="7i__L5xyIWYvFo6Nl9Qe-41" value="Actor" style="shape=umlActor;verticalLabelPosition=bottom;verticalAlign=top;html=1;outlineConnect=0;" parent="1" vertex="1">
          <mxGeometry x="20" y="690" width="30" height="60" as="geometry" />
        </mxCell>
        <mxCell id="7i__L5xyIWYvFo6Nl9Qe-44" value="" style="endArrow=classic;html=1;rounded=0;exitX=1.084;exitY=0.324;exitDx=0;exitDy=0;exitPerimeter=0;entryX=-0.067;entryY=0.323;entryDx=0;entryDy=0;entryPerimeter=0;" parent="1" source="7i__L5xyIWYvFo6Nl9Qe-36" target="7i__L5xyIWYvFo6Nl9Qe-37" edge="1">
          <mxGeometry width="50" height="50" relative="1" as="geometry">
            <mxPoint x="250" y="780" as="sourcePoint" />
            <mxPoint x="300" y="730" as="targetPoint" />
          </mxGeometry>
        </mxCell>
        <mxCell id="7i__L5xyIWYvFo6Nl9Qe-45" value="" style="endArrow=classic;html=1;rounded=0;exitX=0.975;exitY=0.376;exitDx=0;exitDy=0;exitPerimeter=0;entryX=-0.01;entryY=0.374;entryDx=0;entryDy=0;entryPerimeter=0;" parent="1" source="7i__L5xyIWYvFo6Nl9Qe-37" target="7i__L5xyIWYvFo6Nl9Qe-38" edge="1">
          <mxGeometry width="50" height="50" relative="1" as="geometry">
            <mxPoint x="440" y="742" as="sourcePoint" />
            <mxPoint x="650" y="740" as="targetPoint" />
          </mxGeometry>
        </mxCell>
        <mxCell id="7i__L5xyIWYvFo6Nl9Qe-48" value="通知" style="edgeLabel;html=1;align=center;verticalAlign=middle;resizable=0;points=[];" parent="7i__L5xyIWYvFo6Nl9Qe-45" vertex="1" connectable="0">
          <mxGeometry x="-0.1462" y="1" relative="1" as="geometry">
            <mxPoint as="offset" />
          </mxGeometry>
        </mxCell>
        <mxCell id="7i__L5xyIWYvFo6Nl9Qe-46" value="return" style="verticalAlign=bottom;endArrow=open;dashed=1;endSize=8;shadow=0;strokeWidth=1;exitX=0.015;exitY=0.813;exitDx=0;exitDy=0;exitPerimeter=0;entryX=0.913;entryY=0.816;entryDx=0;entryDy=0;entryPerimeter=0;" parent="1" source="7i__L5xyIWYvFo6Nl9Qe-37" target="7i__L5xyIWYvFo6Nl9Qe-36" edge="1">
          <mxGeometry relative="1" as="geometry">
            <mxPoint x="190" y="810" as="targetPoint" />
            <mxPoint x="407.90999999999985" y="810.16" as="sourcePoint" />
          </mxGeometry>
        </mxCell>
        <mxCell id="7i__L5xyIWYvFo6Nl9Qe-50" value="" style="endArrow=classic;html=1;rounded=0;entryX=-0.2;entryY=0.127;entryDx=0;entryDy=0;entryPerimeter=0;" parent="1" target="7i__L5xyIWYvFo6Nl9Qe-49" edge="1">
          <mxGeometry width="50" height="50" relative="1" as="geometry">
            <mxPoint x="40" y="920" as="sourcePoint" />
            <mxPoint x="144.58999999999992" y="920.48" as="targetPoint" />
          </mxGeometry>
        </mxCell>
        <mxCell id="7i__L5xyIWYvFo6Nl9Qe-51" value="下载" style="edgeLabel;html=1;align=center;verticalAlign=middle;resizable=0;points=[];" parent="7i__L5xyIWYvFo6Nl9Qe-50" vertex="1" connectable="0">
          <mxGeometry x="-0.2793" y="3" relative="1" as="geometry">
            <mxPoint as="offset" />
          </mxGeometry>
        </mxCell>
      </root>
    </mxGraphModel>
  </diagram>
  <diagram id="T7DuuR9OtN7_WfAgwDMY" name="第 2 页">
    <mxGraphModel dx="1426" dy="769" grid="1" gridSize="10" guides="1" tooltips="1" connect="1" arrows="1" fold="1" page="1" pageScale="1" pageWidth="827" pageHeight="1169" math="0" shadow="0">
      <root>
        <mxCell id="0" />
        <mxCell id="1" parent="0" />
      </root>
    </mxGraphModel>
  </diagram>
</mxfile>
